<svg xmlns="http://www.w3.org/2000/svg" viewBox="-90 -105 180 120" fill="none">
  <g stroke="#D4829C" stroke-width="4.5" stroke-linecap="round" stroke-linejoin="round">
    <!-- Center petal -->
    <path d="M0 0 C-10 -22 -10 -64 0 -96 C10 -64 10 -22 0 0Z"/>
    <!-- Inner left petal -->
    <path transform="rotate(-27 0 0)" d="M0 0 C-9 -20 -10 -56 0 -82 C10 -56 9 -20 0 0Z"/>
    <!-- Inner right petal -->
    <path transform="rotate(27 0 0)" d="M0 0 C-9 -20 -10 -56 0 -82 C10 -56 9 -20 0 0Z"/>
    <!-- Outer left petal -->
    <path transform="rotate(-57 0 0)" d="M0 0 C-11 -18 -14 -54 0 -86 C14 -54 11 -18 0 0Z"/>
    <!-- Outer right petal -->
    <path transform="rotate(57 0 0)" d="M0 0 C-11 -18 -14 -54 0 -86 C14 -54 11 -18 0 0Z"/>
    <!-- Far left petal -->
    <path transform="rotate(-85 0 0)" d="M0 0 C-10 -15 -12 -44 0 -70 C12 -44 10 -15 0 0Z"/>
    <!-- Far right petal -->
    <path transform="rotate(85 0 0)" d="M0 0 C-10 -15 -12 -44 0 -70 C12 -44 10 -15 0 0Z"/>
  </g>
</svg>
